<?xml version="1.0" encoding="UTF-8" standalone="no"?>
<!DOCTYPE svg PUBLIC "-//W3C//DTD SVG 1.1//EN" "http://www.w3.org/Graphics/SVG/1.1/DTD/svg11.dtd">
<svg width="100%" height="100%" viewBox="0 0 81 81" version="1.1" xmlns="http://www.w3.org/2000/svg" xmlns:xlink="http://www.w3.org/1999/xlink" xml:space="preserve" xmlns:serif="http://www.serif.com/" style="fill-rule:evenodd;clip-rule:evenodd;stroke-linejoin:round;stroke-miterlimit:2;">
    <g transform="matrix(1,0,0,2,751.064,970.811)">
        <g transform="matrix(1.6835,0,0,0.841751,-1013.69,-485.405)">
            <rect x="156" y="0" width="48" height="48" style="fill:rgb(0,119,181);"/>
        </g>
        <g transform="matrix(1.6835,0,0,0.841751,-1013.69,-485.405)">
            <path d="M193.325,35.325C191.75,35.288 190.213,35.288 188.638,35.325C188.3,35.325 188.225,35.25 188.225,34.913L188.225,26.55C188.225,25.913 188.188,25.275 188,24.675C187.438,22.725 185.188,22.013 183.575,23.325C182.713,24 182.375,24.938 182.375,26.063L182.375,33.938C182.375,34.275 182.338,34.613 182.375,34.988C182.413,35.288 182.263,35.363 182,35.325L177.2,35.325C176.9,35.325 176.825,35.25 176.825,34.95C176.863,32.588 176.863,30.225 176.863,27.825C176.863,24.9 176.863,21.975 176.825,19.088C176.825,18.75 176.9,18.675 177.2,18.675L182,18.675C182.3,18.675 182.375,18.75 182.375,19.05L182.375,20.963C182.488,20.85 182.525,20.813 182.563,20.775C184.025,18.638 186.088,18.038 188.525,18.413C191.338,18.863 193.138,20.813 193.588,23.813C193.7,24.525 193.738,25.238 193.738,25.95L193.738,34.913C193.738,35.213 193.663,35.325 193.325,35.325Z" style="fill:white;fill-rule:nonzero;"/>
        </g>
        <g transform="matrix(1.6835,0,0,0.841751,-1013.69,-485.405)">
            <path d="M173.825,27L173.825,34.875C173.825,35.213 173.75,35.325 173.412,35.325C171.838,35.288 170.263,35.325 168.688,35.325C168.387,35.325 168.312,35.25 168.312,34.95L168.312,19.05C168.312,18.788 168.387,18.675 168.688,18.675L173.525,18.675C173.862,18.675 173.9,18.788 173.9,19.088C173.825,21.712 173.825,24.337 173.825,27Z" style="fill:white;fill-rule:nonzero;"/>
        </g>
        <g transform="matrix(1.6835,0,0,0.841751,-1013.69,-485.405)">
            <path d="M174.088,14.325C173.713,15.825 172.175,16.688 170.413,16.388C168.538,16.087 167.488,14.25 168.163,12.45C168.613,11.325 169.7,10.65 171.088,10.688C173.188,10.65 174.575,12.338 174.088,14.325Z" style="fill:white;fill-rule:nonzero;"/>
        </g>
    </g>
</svg>
