<?xml version="1.0" encoding="UTF-8" standalone="no"?>
<!DOCTYPE svg PUBLIC "-//W3C//DTD SVG 1.1//EN" "http://www.w3.org/Graphics/SVG/1.1/DTD/svg11.dtd">
<svg width="100%" height="100%" viewBox="0 0 81 81" version="1.1" xmlns="http://www.w3.org/2000/svg" xmlns:xlink="http://www.w3.org/1999/xlink" xml:space="preserve" xmlns:serif="http://www.serif.com/" style="fill-rule:evenodd;clip-rule:evenodd;stroke-linejoin:round;stroke-miterlimit:2;">
    <g transform="matrix(1,0,0,2,94.4979,970.811)">
        <g transform="matrix(1.6835,0,0,0.841751,-1013.69,-485.405)">
            <rect x="546" y="0" width="48" height="48" style="fill:rgb(13,193,67);"/>
        </g>
        <g transform="matrix(1.6835,0,0,0.841751,-1013.69,-485.405)">
            <path d="M580.751,13.211C578.178,10.563 574.621,9.125 570.989,9.125C563.27,9.125 557.064,15.406 557.14,23.049C557.14,25.471 557.821,27.817 558.956,29.936L556.989,37.125L564.329,35.233C566.372,36.368 568.643,36.898 570.913,36.898C578.556,36.898 584.761,30.617 584.761,22.974C584.761,19.266 583.324,15.785 580.751,13.211ZM570.989,34.552C568.945,34.552 566.902,34.022 565.161,32.963L564.707,32.736L560.318,33.871L561.453,29.557L561.151,29.103C557.821,23.73 559.41,16.617 564.859,13.287C570.307,9.957 577.345,11.547 580.675,16.995C584.005,22.444 582.416,29.482 576.967,32.812C575.226,33.947 573.107,34.552 570.989,34.552ZM577.648,26.152L576.816,25.774C576.816,25.774 575.605,25.244 574.848,24.866C574.772,24.866 574.697,24.79 574.621,24.79C574.394,24.79 574.243,24.866 574.091,24.941C574.091,24.941 574.016,25.017 572.956,26.228C572.88,26.379 572.729,26.455 572.578,26.455L572.502,26.455C572.426,26.455 572.275,26.379 572.199,26.303L571.821,26.152C570.989,25.774 570.232,25.32 569.626,24.714C569.475,24.563 569.248,24.412 569.097,24.26C568.567,23.73 568.037,23.125 567.659,22.444L567.583,22.293C567.507,22.217 567.507,22.141 567.432,21.99C567.432,21.839 567.432,21.687 567.507,21.612C567.507,21.612 567.81,21.233 568.037,21.006C568.189,20.855 568.264,20.628 568.416,20.476C568.567,20.249 568.643,19.947 568.567,19.72C568.491,19.341 567.583,17.298 567.356,16.844C567.205,16.617 567.053,16.541 566.826,16.466L565.994,16.466C565.843,16.466 565.691,16.541 565.54,16.541L565.464,16.617C565.313,16.693 565.161,16.844 565.01,16.92C564.859,17.071 564.783,17.222 564.632,17.374C564.102,18.055 563.799,18.887 563.799,19.72C563.799,20.325 563.951,20.93 564.178,21.46L564.253,21.687C564.934,23.125 565.843,24.412 567.053,25.547L567.356,25.849C567.583,26.076 567.81,26.228 567.961,26.455C569.551,27.817 571.367,28.801 573.41,29.33C573.637,29.406 573.94,29.406 574.167,29.482L574.924,29.482C575.302,29.482 575.756,29.33 576.059,29.179C576.286,29.028 576.437,29.028 576.589,28.876L576.74,28.725C576.891,28.574 577.043,28.498 577.194,28.347C577.345,28.195 577.497,28.044 577.572,27.893C577.724,27.59 577.799,27.212 577.875,26.833L577.875,26.303C577.875,26.303 577.799,26.228 577.648,26.152Z" style="fill:white;fill-rule:nonzero;"/>
        </g>
    </g>
</svg>
