<?xml version="1.0" encoding="UTF-8" standalone="no"?>
<!DOCTYPE svg PUBLIC "-//W3C//DTD SVG 1.1//EN" "http://www.w3.org/Graphics/SVG/1.1/DTD/svg11.dtd">
<svg width="100%" height="100%" viewBox="0 0 81 81" version="1.1" xmlns="http://www.w3.org/2000/svg" xmlns:xlink="http://www.w3.org/1999/xlink" xml:space="preserve" xmlns:serif="http://www.serif.com/" style="fill-rule:evenodd;clip-rule:evenodd;stroke-linejoin:round;stroke-miterlimit:2;">
    <g transform="matrix(1,0,0,2,619.75,839.498)">
        <g transform="matrix(1.6835,0,0,0.841751,-1013.69,-485.405)">
            <rect x="234" y="78" width="48" height="48" style="fill:rgb(255,0,0);"/>
        </g>
        <g transform="matrix(1.6835,0,0,0.841751,-1013.69,-485.405)">
            <path d="M270.85,102.169C270.541,101.021 269.635,100.116 268.487,99.807C266.39,99.233 258,99.233 258,99.233C258,99.233 249.61,99.233 247.512,99.785C246.386,100.094 245.459,101.021 245.15,102.169C244.598,104.267 244.598,108.616 244.598,108.616C244.598,108.616 244.598,112.988 245.15,115.063C245.459,116.212 246.364,117.117 247.512,117.426C249.632,118 258,118 258,118C258,118 266.39,118 268.487,117.448C269.635,117.139 270.541,116.234 270.85,115.085C271.402,112.988 271.402,108.638 271.402,108.638C271.402,108.638 271.424,104.267 270.85,102.169ZM265.377,110.712L265.377,111.131C265.377,111.622 265.391,111.998 265.42,112.243C265.449,112.489 265.507,112.677 265.608,112.778C265.695,112.894 265.839,112.951 266.041,112.951C266.301,112.951 266.475,112.85 266.576,112.648C266.677,112.446 266.721,112.113 266.735,111.636L268.223,111.723C268.238,111.795 268.238,111.882 268.238,111.998C268.238,112.706 268.05,113.24 267.66,113.587C267.27,113.934 266.721,114.107 266.012,114.107C265.16,114.107 264.567,113.833 264.221,113.298C263.874,112.764 263.7,111.94 263.7,110.813L263.7,109.469C263.7,108.313 263.874,107.475 264.235,106.94C264.596,106.406 265.203,106.145 266.056,106.145C266.648,106.145 267.111,106.261 267.429,106.478C267.746,106.695 267.963,107.041 268.093,107.489C268.223,107.952 268.281,108.588 268.281,109.397L268.281,110.712L265.377,110.712ZM265.593,107.504C265.507,107.619 265.449,107.793 265.42,108.038C265.391,108.284 265.377,108.66 265.377,109.166L265.377,109.715L266.648,109.715L266.648,109.166C266.648,108.674 266.634,108.299 266.605,108.038C266.576,107.778 266.504,107.605 266.417,107.504C266.33,107.403 266.186,107.345 266.012,107.345C265.81,107.33 265.68,107.388 265.593,107.504ZM257.025,114.021L257.025,106.319L255.291,106.319L255.291,112.431C255.233,112.576 255.132,112.691 254.987,112.778C254.843,112.879 254.698,112.922 254.554,112.922C254.38,112.922 254.25,112.85 254.178,112.706C254.106,112.561 254.062,112.316 254.062,111.969L254.062,106.319L252.328,106.319L252.328,112.07C252.328,112.792 252.444,113.313 252.69,113.645C252.935,113.977 253.311,114.151 253.817,114.151C254.554,114.151 255.117,113.789 255.478,113.081L255.522,113.081L255.666,114.021L257.025,114.021ZM252.849,104.874L251.129,104.874L251.129,114.006L249.438,114.006L249.438,104.874L247.719,104.874L247.719,103.472L252.849,103.472L252.849,104.874ZM262.255,106.492C262.487,106.709 262.66,107.056 262.761,107.547C262.862,108.024 262.906,108.703 262.92,109.585L262.92,110.798C262.92,111.94 262.776,112.792 262.501,113.327C262.227,113.862 261.808,114.136 261.215,114.136C260.883,114.136 260.594,114.05 260.319,113.905C260.045,113.746 259.842,113.544 259.712,113.284L259.669,113.284L259.496,114.006L258.065,114.006L258.065,103.082L259.741,103.082L259.741,107.143L259.756,107.143C259.9,106.854 260.117,106.608 260.391,106.434C260.666,106.247 260.969,106.16 261.287,106.16C261.692,106.16 262.024,106.276 262.255,106.492ZM261.1,111.998C261.143,111.68 261.172,111.246 261.172,110.683L261.186,110.683L261.186,109.671C261.186,109.079 261.172,108.616 261.128,108.284C261.085,107.966 261.027,107.735 260.926,107.59C260.839,107.46 260.695,107.388 260.522,107.388C260.363,107.388 260.204,107.46 260.059,107.59C259.915,107.735 259.813,107.908 259.756,108.111L259.756,112.475C259.828,112.605 259.929,112.706 260.045,112.778C260.16,112.85 260.29,112.879 260.435,112.879C260.608,112.879 260.753,112.807 260.868,112.677C260.969,112.547 261.056,112.316 261.1,111.998Z" style="fill:white;"/>
        </g>
        <g transform="matrix(1.6835,0,0,0.841751,-1013.69,-485.405)">
            <path d="M256.374,96.317C256.028,96.086 255.782,95.725 255.637,95.219C255.493,94.728 255.421,94.063 255.421,93.254L255.421,92.141C255.421,91.318 255.507,90.653 255.666,90.147C255.84,89.641 256.1,89.28 256.447,89.049C256.808,88.818 257.27,88.702 257.848,88.702C258.412,88.702 258.874,88.818 259.221,89.049C259.568,89.28 259.813,89.656 259.972,90.147C260.131,90.638 260.218,91.303 260.218,92.141L260.218,93.254C260.218,94.078 260.146,94.728 259.987,95.234C259.828,95.725 259.582,96.101 259.235,96.332C258.889,96.563 258.412,96.678 257.819,96.678C257.212,96.664 256.721,96.548 256.374,96.317ZM258.325,95.103C258.426,94.858 258.47,94.439 258.47,93.875L258.47,91.477C258.47,90.927 258.426,90.523 258.325,90.263C258.224,90.003 258.065,89.887 257.819,89.887C257.588,89.887 257.415,90.017 257.328,90.263C257.227,90.523 257.184,90.927 257.184,91.477L257.184,93.875C257.184,94.439 257.227,94.858 257.328,95.103C257.415,95.349 257.588,95.479 257.834,95.479C258.065,95.479 258.224,95.364 258.325,95.103Z" style="fill:white;fill-rule:nonzero;"/>
        </g>
        <g transform="matrix(1.6835,0,0,0.841751,-1013.69,-485.405)">
            <path d="M252.155,93.124L250.19,86L251.909,86L252.603,89.222C252.776,90.017 252.906,90.696 252.993,91.26L253.036,91.26C253.094,90.855 253.224,90.19 253.427,89.237L254.149,86L255.869,86L253.875,93.124L253.875,96.534L252.169,96.534L252.169,93.124L252.155,93.124Z" style="fill:white;fill-rule:nonzero;"/>
        </g>
        <g transform="matrix(1.6835,0,0,0.841751,-1013.69,-485.405)">
            <path d="M265.81,88.847L265.81,96.548L264.452,96.548L264.307,95.609L264.264,95.609C263.903,96.317 263.339,96.679 262.602,96.679C262.097,96.679 261.721,96.505 261.475,96.173C261.23,95.84 261.114,95.32 261.114,94.598L261.114,88.847L262.848,88.847L262.848,94.497C262.848,94.843 262.891,95.089 262.964,95.234C263.036,95.378 263.166,95.45 263.339,95.45C263.484,95.45 263.628,95.407 263.773,95.306C263.917,95.219 264.018,95.104 264.076,94.959L264.076,88.847L265.81,88.847Z" style="fill:white;fill-rule:nonzero;"/>
        </g>
    </g>
</svg>
